<svg width="12" height="9" viewBox="0 0 12 9" fill="none" xmlns="http://www.w3.org/2000/svg">
<path d="M1.66992 0.46875V9H0.591797V0.46875H1.66992ZM4.54688 4.30664V5.23242H1.46484V4.30664H4.54688ZM5.0332 0.46875V1.39453H1.46484V0.46875H5.0332ZM8.95312 5.00977H7.21875L7.20703 4.10156H8.81836C9.06055 4.10156 9.27539 4.04688 9.46289 3.9375C9.65039 3.82812 9.79688 3.67188 9.90234 3.46875C10.0117 3.26172 10.0664 3.01562 10.0664 2.73047C10.0664 2.41797 10.0195 2.16406 9.92578 1.96875C9.83594 1.76953 9.69727 1.625 9.50977 1.53516C9.32617 1.44141 9.0918 1.39453 8.80664 1.39453H7.44727V9H6.36914V0.46875H8.80664C9.17383 0.46875 9.50195 0.513672 9.79102 0.603516C10.0801 0.689453 10.3242 0.826172 10.5234 1.01367C10.7266 1.19727 10.8809 1.43164 10.9863 1.7168C11.0918 2.00195 11.1445 2.34375 11.1445 2.74219C11.1445 3.09375 11.0645 3.41211 10.9043 3.69727C10.748 3.97852 10.5293 4.20898 10.248 4.38867C9.9668 4.56836 9.64258 4.68359 9.27539 4.73438L8.95312 5.00977ZM8.91211 9H6.77344L7.40039 8.08008H8.91211C9.19336 8.08008 9.43164 8.01758 9.62695 7.89258C9.82227 7.76758 9.9707 7.5918 10.0723 7.36523C10.1777 7.13477 10.2305 6.86328 10.2305 6.55078C10.2305 6.23438 10.1875 5.96094 10.1016 5.73047C10.0156 5.5 9.87891 5.32227 9.69141 5.19727C9.50391 5.07227 9.25781 5.00977 8.95312 5.00977H7.56445L7.57617 4.10156H9.45117L9.69141 4.42969C10.043 4.46484 10.3379 4.58203 10.5762 4.78125C10.8184 4.97656 11 5.22656 11.1211 5.53125C11.2461 5.83594 11.3086 6.17188 11.3086 6.53906C11.3086 7.07031 11.209 7.51953 11.0098 7.88672C10.8145 8.25 10.5371 8.52734 10.1777 8.71875C9.81836 8.90625 9.39648 9 8.91211 9Z" fill="white"/>
</svg>
